<svg width="56" height="80" viewBox="0 0 56 80" fill="none" xmlns="http://www.w3.org/2000/svg">
<path opacity="0.32" d="M50.9829 41.6379C50.1103 40.7653 49.1592 39.9975 48.1471 39.3518C47.292 38.8021 46.3933 38.3309 45.4597 37.9383L40.1633 76.2081H26.4905L39.8928 36.6556C39.5612 36.6382 39.2209 36.6295 38.8807 36.6295H17.1019C12.5298 36.6295 8.23683 38.4095 5.00841 41.6379C1.77999 44.8663 0 49.1679 0 53.7314V68.5995C0 72.7965 3.41165 76.2081 7.6086 76.2081H23.4889L23.1574 77.1767C23.009 77.6129 23.0788 78.0928 23.3493 78.468C23.6198 78.8432 24.0474 79.0614 24.5098 79.0614H41.411C42.1265 79.0614 42.7286 78.5378 42.8246 77.8311L43.0514 76.2081L43.0776 76.0249C46.4718 75.2658 49.0196 72.2293 49.0196 68.5995C49.0196 65.755 47.4578 63.2159 45.0321 61.9071L45.4422 58.9492C49.325 60.5634 51.8729 64.3415 51.8729 68.6083C51.8729 71.6011 50.6077 74.306 48.5834 76.2169H56V53.7401C56 49.1679 54.22 44.875 50.9916 41.6466L50.9829 41.6379ZM12.0848 60.9997C11.2995 60.9997 10.6625 60.3627 10.6625 59.5774V53.7401C10.6625 52.9548 11.2995 52.3178 12.0848 52.3178C12.8701 52.3178 13.507 52.9548 13.507 53.7401V58.1464H29.6055L28.637 60.9997H12.0848Z" fill="#047857"/>
<path d="M28.0007 31.8305C36.7904 31.8305 43.9159 24.705 43.9159 15.9152C43.9159 7.12549 36.7904 0 28.0007 0C19.2109 0 12.0854 7.12549 12.0854 15.9152C12.0854 24.705 19.2109 31.8305 28.0007 31.8305Z" fill="#047857"/>
</svg>
