<svg width="57" height="57" viewBox="0 0 57 57" fill="none" xmlns="http://www.w3.org/2000/svg">
<path d="M47.9883 46.2057C48.4696 46.2057 48.8862 46.3817 49.238 46.7336C49.5897 47.0856 49.7656 47.5023 49.7656 47.9839C49.7656 48.4655 49.5897 48.8823 49.238 49.2342C48.8862 49.5862 48.4696 49.7622 47.9883 49.7622H26.6602C26.1788 49.7622 25.7622 49.5862 25.4105 49.2342C25.0587 48.8823 24.8828 48.4655 24.8828 47.9839C24.8828 47.5023 25.0587 47.0856 25.4105 46.7336C25.7622 46.3817 26.1788 46.2057 26.6602 46.2057H47.9883ZM44.4336 53.3186C44.915 53.3186 45.3315 53.4945 45.6833 53.8465C46.0351 54.1984 46.2109 54.6152 46.2109 55.0968C46.2109 55.5784 46.0351 55.9952 45.6833 56.3471C45.3315 56.699 44.915 56.875 44.4336 56.875H30.2148C29.7335 56.875 29.3169 56.699 28.9651 56.3471C28.6134 55.9952 28.4375 55.5784 28.4375 55.0968C28.4375 54.6152 28.6134 54.1984 28.9651 53.8465C29.3169 53.4945 29.7335 53.3186 30.2148 53.3186H44.4336ZM51.0431 39.0929H56.875V42.6493H14.913C14.7279 43.8348 14.5983 45.0203 14.5242 46.2057C14.4502 47.3912 14.3854 48.5674 14.3298 49.7344C14.2743 50.9013 14.2465 52.0868 14.2465 53.2908C14.2465 54.4948 14.2373 55.6895 14.2188 56.875H3.55469V51.5126C3.55469 50.0122 3.61023 48.5304 3.72131 47.0671C3.8324 45.6037 3.98977 44.1311 4.19342 42.6493H0V39.0929H4.77661C5.70231 34.5547 7.10012 30.1926 8.97003 26.0064C10.8399 21.8201 13.1542 17.8655 15.9128 14.1423C13.2097 14.0497 10.7289 13.4848 8.47015 12.4475C6.21145 11.4102 4.14714 9.92835 2.27722 8.00195L1.02753 6.72386L2.33276 5.50134C4.25822 3.70461 6.36882 2.34316 8.66455 1.41701C10.9603 0.490861 13.4319 0.018523 16.0794 0C18.9676 0 21.6151 0.537168 24.0219 1.6115C26.4287 2.68584 28.6412 4.24178 30.6592 6.27931C32.0848 6.31636 33.4641 6.53863 34.7971 6.94614C36.1301 7.35365 37.3705 7.90934 38.5184 8.61321C39.6662 9.31709 40.7123 10.1506 41.6565 11.1138C42.6007 12.077 43.4061 13.1421 44.0726 14.3091C44.7391 15.476 45.2667 16.7263 45.6555 18.06C46.0443 19.3936 46.2295 20.7829 46.2109 22.2277V24.0059H44.4336C41.9897 24.0059 39.7033 23.4872 37.5742 22.4499C35.445 21.4126 33.6029 19.9401 32.0477 18.0322C30.6407 20.5884 28.8726 22.6907 26.7435 24.3393C24.6144 25.9878 22.1242 27.1455 19.2731 27.8123C18.477 29.6461 17.7734 31.4984 17.1625 33.3693C16.5515 35.2401 16.0239 37.148 15.5795 39.0929H23.6053C24.0127 37.5369 24.6514 36.1107 25.5215 34.8141C26.3917 33.5174 27.4285 32.3875 28.6319 31.4243C29.8353 30.4611 31.1868 29.7295 32.6865 29.2294C34.1861 28.7292 35.732 28.4607 37.3242 28.4236C38.9349 28.4236 40.4809 28.6829 41.962 29.2016C43.4431 29.7202 44.7854 30.4611 45.9888 31.4243C47.1922 32.3875 48.2382 33.5082 49.1269 34.7863C50.0156 36.0644 50.6543 37.4999 51.0431 39.0929ZM34.3805 10.5303C34.2694 11.7343 34.0287 12.9569 33.6584 14.1979C34.6027 15.8279 35.8431 17.1801 37.3798 18.2545C38.9164 19.3288 40.629 20.0141 42.5174 20.3105C42.3323 19.1806 42.0083 18.1155 41.5454 17.1153C41.0826 16.115 40.4994 15.1796 39.7958 14.3091C39.0923 13.4385 38.2777 12.6975 37.352 12.0863C36.4263 11.475 35.4358 10.9564 34.3805 10.5303ZM30.8813 10.7248C28.9929 10.873 27.2156 11.3361 25.5493 12.1141C23.8831 12.892 22.3927 13.9108 21.0782 15.1704C19.7637 16.4299 18.6806 17.884 17.829 19.5325C16.9773 21.1811 16.4127 22.9315 16.1349 24.7838C17.7086 24.6542 19.199 24.3208 20.6061 23.7836C22.0131 23.2464 23.2999 22.524 24.4662 21.6164C25.6326 20.7088 26.6694 19.6715 27.5766 18.5045C28.4838 17.3376 29.2336 16.0039 29.826 14.5035C30.0852 13.8923 30.2982 13.2718 30.4648 12.642C30.6314 12.0122 30.7703 11.3731 30.8813 10.7248ZM6.2207 6.835C7.70182 8.05752 9.34031 8.99294 11.1362 9.64124C12.932 10.2896 14.7927 10.6137 16.7181 10.6137C18.514 10.6137 20.2451 10.3359 21.9113 9.78017C23.5776 9.22448 25.1328 8.40946 26.5768 7.33512C25.0957 6.1126 23.4572 5.17719 21.6614 4.52888C19.8655 3.88058 18.0049 3.55642 16.0794 3.55642C14.2835 3.55642 12.5525 3.83427 10.8862 4.38996C9.21997 4.94565 7.66479 5.76067 6.2207 6.835ZM15.0519 28.368C14.9038 28.4051 14.7557 28.4236 14.6075 28.4236C14.4594 28.4236 14.3113 28.4236 14.1632 28.4236H13.2745C12.9783 28.4236 12.6821 28.4051 12.3859 28.368V27.0622C11.4046 29.2479 10.5807 31.3966 9.91425 33.5082C9.24774 35.6198 8.70158 37.75 8.27576 39.8986C7.84993 42.0473 7.55371 44.2238 7.38708 46.428C7.22046 48.6322 7.12789 50.9291 7.10938 53.3186H10.6641C10.6641 51.0773 10.7381 48.9101 10.8862 46.817C11.0343 44.7239 11.2843 42.6586 11.636 40.621C11.9878 38.5835 12.4414 36.5552 12.9968 34.5362C13.5522 32.5172 14.2373 30.4611 15.0519 28.368ZM27.3267 39.0929H47.3218C46.9515 38.0371 46.4331 37.0739 45.7666 36.2033C45.1001 35.3327 44.3318 34.5825 43.4616 33.9527C42.5915 33.323 41.6287 32.8414 40.5734 32.5079C39.5181 32.1745 38.4351 31.9986 37.3242 31.98C36.1949 31.98 35.1118 32.1467 34.075 32.4802C33.0382 32.8136 32.0848 33.2952 31.2146 33.925C30.3444 34.5547 29.5669 35.3049 28.8818 36.1755C28.1968 37.0461 27.6784 38.0185 27.3267 39.0929Z" fill="#065F46"/>
</svg>
